<mxfile host="app.diagrams.net" agent="Mozilla/5.0 (Windows NT 10.0; Win64; x64) AppleWebKit/537.36 (KHTML, like Gecko) Chrome/134.0.0.0 Safari/537.36" version="26.1.1" pages="2">
  <diagram name="System Architecture" id="0">
    <mxGraphModel dx="889" dy="452" grid="1" gridSize="10" guides="1" tooltips="1" connect="1" arrows="1" fold="1" page="1" pageScale="1" pageWidth="827" pageHeight="1169" math="0" shadow="0">
      <root>
        <mxCell id="0" />
        <mxCell id="1" parent="0" />
        <mxCell id="2" value="User" style="ellipse;fillColor=#FFCC00;strokeColor=#000000;" vertex="1" parent="1">
          <mxGeometry x="80" y="120" width="100" height="60" as="geometry" />
        </mxCell>
        <mxCell id="3" value="Frontend (Next.js 15)" style="rounded=1;fillColor=#A0C4FF;strokeColor=#000000;" vertex="1" parent="1">
          <mxGeometry x="240" y="120" width="140" height="60" as="geometry" />
        </mxCell>
        <mxCell id="4" value="Backend (Convex, LangChain)" style="rounded=1;fillColor=#BDB2FF;strokeColor=#000000;" vertex="1" parent="1">
          <mxGeometry x="420" y="120" width="180" height="60" as="geometry" />
        </mxCell>
        <mxCell id="5" value="Claude 3.5 AI Model" style="rounded=1;fillColor=#FFADAD;strokeColor=#000000;" vertex="1" parent="1">
          <mxGeometry x="660" y="120" width="140" height="60" as="geometry" />
        </mxCell>
        <mxCell id="6" value="Convex DB" style="ellipse;fillColor=#FFD6A5;strokeColor=#000000;" vertex="1" parent="1">
          <mxGeometry x="420" y="240" width="120" height="60" as="geometry" />
        </mxCell>
        <mxCell id="7" edge="1" parent="1" source="2" target="3">
          <mxGeometry relative="1" as="geometry" />
        </mxCell>
        <mxCell id="8" edge="1" parent="1" source="3" target="4">
          <mxGeometry relative="1" as="geometry" />
        </mxCell>
        <mxCell id="9" edge="1" parent="1" source="4" target="5">
          <mxGeometry relative="1" as="geometry" />
        </mxCell>
        <mxCell id="10" edge="1" parent="1" source="4" target="6">
          <mxGeometry relative="1" as="geometry" />
        </mxCell>
      </root>
    </mxGraphModel>
  </diagram>
  <diagram id="kWpOar8MrIbU_s2ehjES" name="Page-2">
    <mxGraphModel dx="1434" dy="772" grid="1" gridSize="10" guides="1" tooltips="1" connect="1" arrows="1" fold="1" page="1" pageScale="1" pageWidth="850" pageHeight="1100" math="0" shadow="0">
      <root>
        <mxCell id="0" />
        <mxCell id="1" parent="0" />
      </root>
    </mxGraphModel>
  </diagram>
</mxfile>
